<?xml version="1.0" encoding="UTF-8" standalone="no"?>
<svg width="512" height="512" viewBox="0 0 512 512" fill="none" xmlns="http://www.w3.org/2000/svg">
  <rect width="512" height="512" rx="64" fill="#2C5282"/>
  <g filter="url(#filter0_d)">
    <path d="M396 176H116C107.163 176 100 183.163 100 192V384C100 392.837 107.163 400 116 400H396C404.837 400 412 392.837 412 384V192C412 183.163 404.837 176 396 176Z" fill="white"/>
  </g>
  <path d="M396 112H116C107.163 112 100 119.163 100 128V176H412V128C412 119.163 404.837 112 396 112Z" fill="#4299E1"/>
  <rect x="124" y="136" width="40" height="16" rx="8" fill="white"/>
  <rect x="180" y="136" width="40" height="16" rx="8" fill="white"/>
  <rect x="236" y="136" width="40" height="16" rx="8" fill="white"/>
  <rect x="124" y="204" width="264" height="16" rx="8" fill="#E2E8F0"/>
  <rect x="124" y="236" width="264" height="16" rx="8" fill="#E2E8F0"/>
  <rect x="124" y="268" width="264" height="16" rx="8" fill="#E2E8F0"/>
  <rect x="124" y="300" width="264" height="16" rx="8" fill="#E2E8F0"/>
  <rect x="124" y="332" width="264" height="16" rx="8" fill="#E2E8F0"/>
  <rect x="124" y="364" width="116" height="16" rx="8" fill="#4299E1"/>
  <rect x="272" y="364" width="116" height="16" rx="8" fill="#48BB78"/>
  <defs>
    <filter id="filter0_d" x="92" y="172" width="328" height="240" filterUnits="userSpaceOnUse" color-interpolation-filters="sRGB">
      <feFlood flood-opacity="0" result="BackgroundImageFix"/>
      <feColorMatrix in="SourceAlpha" type="matrix" values="0 0 0 0 0 0 0 0 0 0 0 0 0 0 0 0 0 0 127 0"/>
      <feOffset dy="4"/>
      <feGaussianBlur stdDeviation="4"/>
      <feColorMatrix type="matrix" values="0 0 0 0 0 0 0 0 0 0 0 0 0 0 0 0 0 0 0.1 0"/>
      <feBlend mode="normal" in2="BackgroundImageFix" result="effect1_dropShadow"/>
      <feBlend mode="normal" in="SourceGraphic" in2="effect1_dropShadow" result="shape"/>
    </filter>
  </defs>
</svg>
